<?xml version="1.0" encoding="utf-8"?>
<!-- Generator: Adobe Illustrator 27.1.1, SVG Export Plug-In . SVG Version: 6.00 Build 0)  -->
<svg version="1.1" id="Layer_1" xmlns="http://www.w3.org/2000/svg" xmlns:xlink="http://www.w3.org/1999/xlink" x="0px" y="0px"
	 viewBox="0 0 405.6 274.4" style="enable-background:new 0 0 405.6 274.4;" xml:space="preserve">
<style type="text/css">
	.st0{fill:#FD4F00;}
</style>
<path class="st0" d="M405.6,22.2l-4.6-1l-4.6-1.3l-1.1,3.8c-7.3,19.7-36,26.5-66.4,33.6c-22.5,5.3-45.6,10.7-61.3,22.1
	c-1.8-9.5-6.1-18.5-12.6-26.1c4.8-3.4,9.3-7.2,13.3-11.8C278,30.3,282.7,16.8,282.7,0h-9.5c0,9.8-10.4,17.8-30.9,24
	c-10,3-17.5,5.8-23.4,8.8c-5.1-1-10.6-1.6-16.1-1.6v0.6l0-0.6c-5.6,0-11,0.5-16.1,1.6c-5.9-3-13.4-5.8-23.4-8.8
	c-20.5-6.1-30.9-14.2-30.9-24h-9.5c0,16.8,4.7,30.3,14.5,41.4c4,4.6,8.6,8.4,13.3,11.8c-6.5,7.6-10.9,16.6-12.6,26.1
	c-15.8-11.4-38.9-16.8-61.3-22.1c-30.3-7.1-59.1-13.9-66.4-33.6l-1.1-3.8l-4.6,1.3l-4.6,1c0.3,1.6,0.8,3.1,1.3,4.5l45.6,155.5
	l2.3,0.8c25.9,9.3,46.4,9.2,66.2,9.1c13.6-0.1,26.8-0.1,41.3,2.9c3.5,3.5,4.7,8.2,3.2,13c-2.8,9-15,19.6-41,22.4l-7.9,0.9l4.5,6.6
	c0.3,0.4,6.6,9.5,20.7,18.6c12.7,8.2,34.6,17.9,66.6,18l0,0c0.1,0,0.1,0,0.2,0s0.1,0,0.2,0l0,0c32-0.1,53.9-9.8,66.6-18
	c14-9,20.4-18.2,20.6-18.6l4.5-6.6l-7.9-0.9c-26-2.8-38.2-13.4-41-22.4c-1.5-4.9-0.3-9.6,3.3-13.1c14.4-2.9,27.5-2.9,40.9-2.8
	c19.8,0.1,40.3,0.2,66.2-9.1l2.3-0.8l45.6-155.5C404.7,25.2,405.2,23.7,405.6,22.2L405.6,22.2z M259.5,134.7
	c-5.1,26.3-19.1,46.6-41.9,60.5c-4.8,2.1-9.7,4.6-14.9,7.6c-5.1-2.9-10.1-5.4-14.9-7.6c-22.6-13.9-36.7-34.1-41.8-60.2
	c-1.4-7.3-2-14.2-2-20.3c6.8,10.4,17.2,15.2,25.5,15.2c4.2,0,8.3-0.6,12.1-1.8l21.1,20.9l21.1-20.9c3.8,1.2,7.9,1.8,12.1,1.8
	c8.3,0,18.8-4.9,25.5-15.3C261.4,120.8,260.9,127.6,259.5,134.7L259.5,134.7z M199.6,211.9c0.3,0.2,0.5,0.3,0.8,0.5l0.1-0.1
	c0.2,0.1,0.3,0.1,0.5,0.2l0.9,0.4h1.9l0.9-0.4c0.2-0.1,0.3-0.1,0.5-0.2l0.1,0.1c0.3-0.2,0.5-0.3,0.8-0.5c1.4-0.6,2.8-1.2,4.2-1.9
	c1.6,11.7,6.7,35.4,21.9,51.7c-8.4,1.9-18.1,3.1-29.1,3.2c-11.1,0-20.9-1.3-29.4-3.2c15.1-16.3,20.2-39.9,21.8-51.6
	C196.8,210.7,198.2,211.3,199.6,211.9L199.6,211.9z M202.8,109.7c1.2,3,2.8,5.7,4.9,8.2c2,2.3,4.3,4.3,6.9,6l-11.9,11.8l-11.9-11.8
	c2.6-1.7,5-3.7,6.9-6C200,115.4,201.6,112.6,202.8,109.7L202.8,109.7z M259,88.9c0,23.9-15.5,31.6-23,31.6c-8.5,0-16.3-3.3-21-8.8
	c-4.2-4.9-5.8-11.4-4.5-19.1c2.2-13.8,14.4-21,28.6-29.3c2.6-1.5,5.3-3.1,7.9-4.7C254.6,67,259,77.9,259,88.9L259,88.9z M203.1,40.8
	c1.4,0,2.7,0,4,0.1c-1.7,1.6-3.1,3.3-4.4,5.1c-1.2-1.8-2.6-3.5-4.3-5.1C200,40.8,201.6,40.8,203.1,40.8L203.1,40.8z M136.5,22.4
	c6,4.1,14.1,7.7,24,10.7c27.7,8.3,37.5,16,37.5,29.2h9.5c0-13.2,9.8-20.9,37.5-29.2c10-3,18-6.6,24-10.7
	c-6.8,16.2-21,24.5-34.9,32.7c-12.9,7.6-26.2,15.4-31.4,29.4c-5.1-13.9-18.5-21.8-31.4-29.4C157.5,46.9,143.3,38.5,136.5,22.4
	L136.5,22.4z M158.6,58.5c2.6,1.6,5.3,3.2,7.9,4.7c14.1,8.3,26.4,15.5,28.6,29.3c1.2,7.7-0.3,14.2-4.5,19.1
	c-4.7,5.5-12.6,8.8-21,8.8c-7.5,0-23-7.7-23-31.6C146.6,77.9,150.9,67.1,158.6,58.5L158.6,58.5z M115.4,182.6
	c-18.4,0.1-37.4,0.2-60.7-7.8L16.9,46.1c14.7,10.3,36.4,15.4,57.6,20.3c23.8,5.6,48.4,11.4,62.2,24c-0.7,3.6-1.8,10.4-2.1,19.3
	C110.6,99.1,92.5,97,66.2,94c-3.5-0.4-7.1-0.8-11-1.3l-1.1,9.4c3.8,0.4,7.5,0.9,11,1.3c27.8,3.2,44.9,5.1,69.6,16.8
	c0.3,5.1,0.9,10.6,2,16.3c0.6,2.9,1.3,6,2.2,9.1c-20.6-5.1-46.9-7.6-61.9-8.7l-0.7,9.5c16.3,1.2,46.1,4,66.4,10.1
	c4.1,10,10.2,20.4,19.4,29.9C145,182.5,130,182.6,115.4,182.6L115.4,182.6z M128.8,238.6c9.6-1.8,17.8-4.9,24.6-9.1
	c8-5,13.5-11.5,15.7-18.7c1.3-4.3,1.4-8.5,0.3-12.5c4.6,1.4,9.3,3.2,14.2,5.4c0.9,0.6,1.9,1.1,2.8,1.6c-1,9.1-5.5,37.8-23.3,53.3
	c-8.9-3-16-6.6-21.3-10C136.1,245.1,131.8,241.5,128.8,238.6L128.8,238.6z M236.8,210.8c2.2,7.2,7.6,13.6,15.7,18.7
	c6.7,4.2,15,7.3,24.6,9.1c-3,2.9-7.3,6.5-12.9,10.1c-5.4,3.4-12.5,7.1-21.5,10.1c-17.9-15.6-22.4-44.2-23.4-53.4
	c0.9-0.5,1.9-1.1,2.8-1.6c5.1-2.2,9.9-4.1,14.6-5.5C235.5,202.2,235.5,206.5,236.8,210.8L236.8,210.8z M350.9,174.9
	c-23.3,7.9-42.3,7.9-60.7,7.8c-14.7-0.1-29.6-0.1-46.6,3.8c9-9.5,15.1-19.7,19.2-29.6c20.3-6.1,50.1-8.9,66.4-10.1l-0.7-9.5
	c-15,1.1-41.4,3.6-61.9,8.7c0.9-3.2,1.7-6.4,2.2-9.4c1.1-5.6,1.7-11,2-16.1c24.7-11.6,41.8-13.6,69.5-16.7c3.5-0.4,7.1-0.8,11-1.3
	l-1.1-9.4c-3.8,0.4-7.5,0.9-11,1.3c-26.2,3-44.3,5-68.3,15.6c-0.2-9-1.4-15.9-2.1-19.5c13.7-12.6,38.3-18.4,62.2-24
	c21.2-5,43-10.1,57.6-20.3L350.9,174.9L350.9,174.9z"/>
<path class="st0" d="M237.6,83.6c-2,0.1-3.8,0.6-5.3,1.3c3.7,2.3-1.1,6.9-3.9,2.8c-1.2,1.2-2.2,2.7-2.9,4c-1.4,2.7,0.4,6,3.4,6.2
	c3.2,0.2,6.7-0.4,9.9-2.1C245.3,92.2,247.5,82.9,237.6,83.6L237.6,83.6z"/>
<path class="st0" d="M166.9,95.7c3.2,1.7,6.7,2.3,9.9,2.1c3-0.2,4.8-3.5,3.4-6.2c-0.7-1.4-1.7-2.8-2.9-4c-2.8,4.2-7.6-0.5-3.9-2.8
	c-1.5-0.7-3.3-1.2-5.3-1.3C158.1,82.9,160.4,92.2,166.9,95.7L166.9,95.7z"/>
</svg>
